<svg id="图层_1" data-name="图层 1" xmlns="http://www.w3.org/2000/svg" viewBox="0 0 3000 3000"><defs><style>.cls-1{fill:#010101;}.cls-2{fill:#fe1844;}.cls-3{fill:#030303;}.cls-4{fill:#020202;}.cls-5{fill:#040404;}.cls-6{fill:#050505;}</style></defs><path class="cls-1" d="M411.43,1678.05c3.19-1.89,6.36-3.81,9.58-5.65,81.9-46.85,165.16-91.23,247.94-136.49q130.62-71.43,261.31-142.69,199.46-108.83,398.92-217.62Q1556,1051.84,1782.74,928l301.63-164.59c2.53-1.38,5.05-2.79,7.61-4.12,5.72-3,5.79-3,9,2.89q29.9,54.67,59.74,109.38,23.86,43.68,47.76,87.34c4,7.23,4,7.21-2.71,10.87Q1980.87,1092.5,1756,1215.19q-198.3,108.22-396.57,216.5-159.17,86.86-318.35,173.69-64.59,35.23-129.14,70.53a34.45,34.45,0,0,1-17.23,4.45q-237.27-.19-474.54-.1h-8.31Z"/><path class="cls-1" d="M2752.1,1018.62c-18.64,10.18-36.58,20-54.54,29.8Q2440.77,1188.58,2184,1328.73,1998.61,1429.88,1813.18,1531q-130.7,71.29-261.25,142.8a52.14,52.14,0,0,1-26.23,6.66q-236-.32-471.92-.15h-10.32c1.9-3.83,5.1-4.6,7.61-6q82.38-45.09,164.83-90,133.32-72.78,266.64-145.57,185.37-101.17,370.75-202.32,227.91-124.42,455.79-248.88,161-87.94,322.09-175.86c6.42-3.5,6.53-3.53,9.77,2.42q54.73,100.28,109.41,200.59C2750.9,1015.63,2751.28,1016.73,2752.1,1018.62Z"/><path class="cls-2" d="M652.07,1460.76c-6.33,4.58-279.32,153.67-289.16,157.71,4.26-6.86,7.6-12.29,11-17.69,6.92-11,6.91-10.9-3.79-17.72-29.45-18.76-58.81-37.66-88.37-56.23-4.74-3-6.49-6.17-6.49-11.81q.25-215.58.14-431.18c0-1.44.07-2.89,0-4.32-.19-3.27,1.24-4.82,4.57-4.68,2.31.1,4.62,0,6.93,0q345.9,0,691.79,0,185.28,0,370.56-.3h8.47c-.28,3.35-2.73,3.5-4.32,4.37Q1143,1193.8,932.53,1308.73a42.56,42.56,0,0,1-21.35,5.36q-188.74-.24-377.5-.12c-12.64,0-11.39-.1-11.41,11.16,0,14.14.33,28.29-.14,42.42-.23,6.8,1.81,10.9,7.8,14.66,38.39,24,76.5,48.54,114.68,72.93C647.2,1456.8,650.17,1458.06,652.07,1460.76Z"/><path class="cls-1" d="M2403.48,1680.34c6.83-4.08,13.46-8.56,20.54-12.12,6-3,7.75-7,7.74-13.68q-.35-171-.15-342c0-12.35-1.27-11,11.22-11q108.66,0,217.31,0a40.82,40.82,0,0,0,5.19,0c4.83-.62,6.1,1.83,5.67,6.08-.17,1.72,0,3.46,0,5.19q0,178.37,0,356.71c0,12.23,1.41,10.69-10.45,10.7-83.7.09-167.39-.15-251.07,1.84-1.72,0-3.45,0-5.17,0C2404,1681.5,2403.75,1680.92,2403.48,1680.34Z"/><path class="cls-3" d="M425.58,2130.84,364,2201.27,302.52,2131c-2.62,2.06-1.5,4.84-1.5,7.13-.09,32.31,0,64.63-.07,96.94,0,7.12-.07,7.19-6.88,7.22-12.69.06-25.39,0-38.08,0-8.13,0-7.19.23-7.2-7.71q0-20.76,0-41.54V2044.22a37.42,37.42,0,0,0,0-5.19c-.67-4.7,1.48-5.93,5.86-5.7a155.13,155.13,0,0,0,18.17,0c4.57-.31,7.36,1.54,10.24,4.87q37.74,43.46,75.8,86.61c1.48,1.69,2.59,3.85,5.55,4.95,1.73-1.82,3.72-3.77,5.56-5.86,25-28.36,50-56.68,74.79-85.2,3.33-3.83,6.68-5.7,11.78-5.37,6,.39,12.11.22,18.17,0,3.32-.09,4.83,1.08,4.55,4.48-.14,1.72,0,3.46,0,5.19v189.55c0,1.73-.1,3.47,0,5.19.24,3.23-.93,4.65-4.41,4.62-14.42-.14-28.85-.21-43.27,0-5.34.08-4.29-3.36-4.29-6.35q0-40.25,0-80.49,0-9.52,0-19A8.26,8.26,0,0,0,425.58,2130.84Z"/><path class="cls-4" d="M887.17,1889.36v52.69c0,19.34-.09,38.68.08,58,0,4.27-.87,6.12-5.72,6-13.84-.33-27.7-.21-41.56,0-3.72,0-5.38-1.15-5-5a41.67,41.67,0,0,0,0-4.33v-190.5c0-2,.06-4,0-6.07-.07-2.57,1.19-3.55,3.67-3.54,7.8,0,15.59.07,23.38,0,3.85,0,5.34,3.12,7.42,5.33q47.84,50.7,95.6,101.48c2.91,3.09,6.22,5.81,9.62,8.94,1.44-2.12.7-4.75.7-7.14q.09-50.67.06-101.32c0-7.16.08-7.23,6.88-7.26q19.49-.08,39,0c6.22,0,6.26.11,6.37,6,.08,4.33,0,8.66,0,13v181c0,10.8.67,9.31-9.13,9.36-6.63,0-14.12,1.77-19.67-.72-5.87-2.64-10-9.31-14.7-14.34Q939.07,1943,894,1895C892.28,1893.16,890.93,1890.83,887.17,1889.36Z"/><path class="cls-4" d="M1229.86,1890.28v44.9c0,21.36,0,42.71,0,64.07,0,6.57-.1,6.65-6.57,6.68q-19.49.09-39,0c-6.48,0-6.59-.11-6.59-6.66q-.06-56.71,0-113.42,0-41.13,0-82.25c0-6.89.09-6.94,7.11-7,7.21,0,15.06-1.68,21.46.62,6.77,2.43,10.81,10,15.94,15.47q45.48,48.15,90.78,96.46a32.7,32.7,0,0,1,2.9,4.21c3.18-2.74,2.17-5.19,2.18-7.28q.11-50.64.06-101.29c0-9.13-.78-8.17,8.5-8.2q17.74,0,35.5,0c8.94,0,8.14-1,8.15,8.52q0,88.3,0,176.62c0,5.77,0,11.54,0,17.32-.07,6.72-.1,6.81-6.4,6.83-7.49,0-15.63,1.68-22.31-.68s-10.79-10.07-15.92-15.52q-44.54-47.25-88.92-94.64c-1.75-1.86-3.45-3.75-5.17-5.63Z"/><path class="cls-5" d="M1553.18,1818.27c-9.06,12.59-17.74,24.45-26.16,36.49-2.34,3.33-4.22,2.73-7,.83-9.72-6.6-20.23-10.81-32.25-10.92-25.32-.22-45,14.13-52.25,38.44-7.61,25.43,1.18,52.22,21.66,66.05,29.88,20.17,72.81,4.65,82.82-30a9.67,9.67,0,0,0-.11-2.26c-1.83-1.12-4.15-.59-6.29-.6-15.87,0-31.74-.13-47.61,0-4.12,0-6.39-.47-6.25-5.54.35-12.4.24-24.82,0-37.22-.07-4.07,1.2-5.56,5.42-5.54q49.35.2,98.7,0c4,0,5.39,1.64,6.32,5.29,16.84,65.93-25.43,124.12-87.78,131.45-29.6,3.48-57-2.18-81.06-20-27.86-20.65-41.29-49-41.18-83.57.14-39.23,16.75-69.66,50.62-89.6,28.91-17,59.88-19.42,91.77-9.17A107.14,107.14,0,0,1,1553.18,1818.27Z"/><path class="cls-3" d="M463.82,1900.48q0-47.62,0-95.26c0-10-.67-8.52,8.95-8.57,12.7-.07,25.4.13,38.1-.1,4.16-.08,5.46,1.23,5.42,5.4-.19,19.34-.07,38.68-.09,58,0,8-.21,7.4,7.65,7.4,21.66,0,43.31,0,65,0,7.56,0,7.63-.06,7.65-7.4,0-18.76,0-37.53,0-56.29,0-6.94.09-7,7.17-7q19.49-.06,39,0c6.51,0,6.61.11,6.61,6.65q.06,65,0,129.9,0,32.47,0,65c0,8.5.25,7.81-8.13,7.8-12.7,0-25.41,0-38.11,0-6.44,0-6.54-.12-6.55-6.79q-.06-38.1,0-76.21c0-8,.46-7.62-7.43-7.62-22.23,0-44.46,0-66.69,0-6,0-6.12.15-6.13,6.26,0,25.69,0,51.38,0,77.07,0,7.17-.08,7.24-6.88,7.26q-19.49.07-39,0c-6.4,0-6.5-.11-6.51-6.73Q463.78,1949.84,463.82,1900.48Z"/><path class="cls-3" d="M668.94,1901.09q0-48.46,0-96.92c0-7.46.06-7.53,7.49-7.53q68.37,0,136.74,0c7.46,0,7.49.06,7.52,7.49,0,10.38.07,20.77,0,31.15-.06,9.44,1.65,9-9.49,9q-39.81,0-79.62,0c-11.58,0-10.23-1.18-10.29,10-.08,14.13,0,14.13,14,14.13,18.17,0,36.34,0,54.52,0,6.55,0,6.62.14,6.66,6.65q.09,16,0,32c0,7.45,1.75,8.18-7.79,8.15-19,0-38.08,0-57.12,0-2,0-4,.07-6.05,0-2.82-.1-4.26,1-4.24,4,.06,11.54.09,23.08,0,34.62,0,4,2.51,3.77,5.2,3.77q19.47,0,38.94,0c16.16,0,32.31,0,48.47,0,6.68,0,6.76.1,6.8,6.47q.1,17.31,0,34.61c0,7-.09,7.12-7,7.13q-38.5.06-77,0-30.28,0-60.58,0c-7,0-7.1-.09-7.11-7.07Q668.91,1950,668.94,1901.09Z"/><path class="cls-3" d="M456.84,1870.79c-15.48,5-30.57,9.74-45.54,14.79-3.13,1.06-4.1-.07-5-2.58a67.36,67.36,0,0,0-10.33-18.89c-20-25.2-59.21-26.42-80.75-2.51-19.31,21.43-18.47,60.31,1.51,81,20.33,21,62.21,22.06,81.6-7.58a67.92,67.92,0,0,0,7.76-15.41c1-2.84,2.17-4.42,5.56-3.34,15.06,4.78,30.16,9.42,45.19,14.1-9.32,40-51.65,79.26-109.32,75.39-56.52-3.8-97.07-45-99.48-99.74-2.37-53.77,34.09-99.08,86.61-107.64C391.3,1789.1,440.84,1818.08,456.84,1870.79Z"/><path class="cls-3" d="M1027.14,2242.35c-34-1.37-68.51-18.78-87.28-59.26-27.65-59.63,1.62-132.48,72.72-147.06,43-8.81,80.67,2.17,109.19,37.49,7,8.6,11.5,18.55,15.52,28.8,1.56,4,.59,5.5-3.42,6.73-13.21,4.06-26.33,8.41-39.42,12.86-4,1.35-5.67.16-7-3.64a57.15,57.15,0,0,0-8-15.24c-13.08-18.07-34.58-25.78-56.62-20.26a52,52,0,0,0-39,43.81c-1.7,12.19-1.08,24.29,3.76,35.72,8.47,20,24,30.61,45.44,32,19.21,1.26,35-5.85,46.33-21.69a61.05,61.05,0,0,0,8.61-16.88c1-2.95,2.26-3.9,5.68-2.78,13.4,4.41,27,8.35,40.42,12.58,5.13,1.61,5.25,1.9,3.27,7.43a100.37,100.37,0,0,1-30,43.73C1087.05,2233.9,1063.43,2242.53,1027.14,2242.35Z"/><path class="cls-6" d="M496,2033.39c12.05,0,23.84-.17,35.62.08,5.38.12,12.24-2.52,15.74,1.34,3,3.35.88,10,.89,15.1q.11,45,0,90.05c0,9.86.81,19.59,4.44,28.89,6.34,16.21,18.71,25,35.66,25.17s29.7-8.35,36.36-24.24c3.76-9,4.64-18.38,4.63-28q0-49.35,0-98.71c0-2,.09-4,0-6-.13-2.58,1.06-3.67,3.57-3.66q22.51,0,45,0c2.82,0,4.35.92,4.11,4-.14,1.73,0,3.47,0,5.2,0,32,.05,64.07-.08,96.1-.06,14.75-1.21,29.34-6.27,43.44-14,39-48.92,61.81-90.33,60.47-49.28-1.58-83.71-37.1-88.62-84a135.65,135.65,0,0,1-1-13.8q-.17-53.24-.1-106.49C495.62,2036.9,495.83,2035.52,496,2033.39Z"/><path class="cls-3" d="M686.32,2205.84c10-12.16,19.35-23.44,28.51-34.9,2.51-3.13,4.2-1.62,6.33.13A112.76,112.76,0,0,0,750.6,2189c12.3,5,25,6.71,38.11,4.48a32.31,32.31,0,0,0,14.31-5.69c6.69-5,6.8-13,.47-18.43-3.36-2.9-7.42-4.32-11.58-5.59-13-3.94-26.53-5.36-39.73-8.36a169.83,169.83,0,0,1-28.85-8.83c-40.69-17.28-47.91-67.29-13.85-95.77,11.43-9.56,24.88-14.57,39.38-16.34,35.14-4.28,66.71,5,96.1,26.65l-29.43,37.41a89.36,89.36,0,0,0-39.87-17c-8.3-1.34-16.66-1.62-24.87.72a26.7,26.7,0,0,0-6.42,2.48c-6.62,3.93-6.88,10.89-.74,15.48,3.56,2.67,7.75,3.89,12,4.76,14.38,3,28.83,5.64,43.22,8.6a118,118,0,0,1,31.5,11.54c34.21,18.06,38.11,67.11,13.1,92.22-14.49,14.55-32.14,22.34-52.17,24.46C751.22,2246,717.23,2231.84,686.32,2205.84Z"/><path class="cls-1" d="M1157.31,1900.63q0,48.86,0,97.72c0,7.53-.06,7.57-7.36,7.59-13,0-26,.06-38.92,0-5.93,0-6-.13-6.06-6.3-.07-7.21,0-14.42,0-21.62V1806.78c0-2,.1-4,0-6-.16-2.86.89-4.15,3.94-4.13,14.7.1,29.4.13,44.1,0,3.51,0,4.6,1.39,4.35,4.6-.14,1.72,0,3.46,0,5.19Z"/><path class="cls-1" d="M919.84,2137.83q0,48.89,0,97.78c0,6.58-.09,6.67-6.47,6.69q-19.9.09-39.81,0c-5.92,0-6-.11-6-6.17q-.06-45,0-90V2040.57c0-7.45-.63-7.17,6.83-7.16,13,0,26,0,38.94,0,6.46,0,6.55.1,6.56,6.6Q919.88,2088.94,919.84,2137.83Z"/><path class="cls-5" d="M1137.77,2242.33c0-16.61,0-32.43,0-48.26,0-3.14,1.62-3.78,4.36-3.77,14.4.07,28.82.13,43.22,0,4-.05,4.79,1.73,4.75,5.22-.12,14.12-.07,28.24,0,42.36,0,2.55-.22,4.52-3.54,4.5C1170.44,2242.3,1154.37,2242.33,1137.77,2242.33Z"/></svg>